%TF.GenerationSoftware,KiCad,Pcbnew,8.0.6*%
%TF.CreationDate,2024-10-23T18:19:56-04:00*%
%TF.ProjectId,MobileRadio,4d6f6269-6c65-4526-9164-696f2e6b6963,rev?*%
%TF.SameCoordinates,Original*%
%TF.FileFunction,Copper,L2,Inr*%
%TF.FilePolarity,Positive*%
%FSLAX46Y46*%
G04 Gerber Fmt 4.6, Leading zero omitted, Abs format (unit mm)*
G04 Created by KiCad (PCBNEW 8.0.6) date 2024-10-23 18:19:56*
%MOMM*%
%LPD*%
G01*
G04 APERTURE LIST*
%TA.AperFunction,ComponentPad*%
%ADD10C,2.200000*%
%TD*%
%TA.AperFunction,ViaPad*%
%ADD11C,0.600000*%
%TD*%
G04 APERTURE END LIST*
D10*
%TO.N,GND*%
%TO.C,J1*%
X126450000Y-54450000D03*
X126450000Y-59550000D03*
X131550000Y-54450000D03*
X131550000Y-59550000D03*
%TD*%
D11*
%TO.N,Net-(U1-PA11_A3_D3)*%
X124995500Y-139319750D03*
%TO.N,GND*%
X130500000Y-132900000D03*
%TO.N,DRA_TX*%
X121025000Y-81525000D03*
%TO.N,DRA_RX*%
X121025000Y-77075000D03*
%TO.N,Net-(U1-PA11_A3_D3)*%
X103375000Y-68175000D03*
%TO.N,Net-(U1-PA6_A10_D10_MOSI)*%
X103375000Y-59275000D03*
%TO.N,Net-(U1-PA5_A9_D9_MISO)*%
X103375000Y-63725000D03*
X108830500Y-136779750D03*
%TO.N,Net-(U1-PA6_A10_D10_MOSI)*%
X108830500Y-139319750D03*
%TO.N,DRA_TX*%
X124995500Y-144399750D03*
%TO.N,DRA_RX*%
X124995500Y-146939750D03*
%TO.N,GND*%
X121385500Y-141606750D03*
X115670500Y-145411750D03*
X108830500Y-144399750D03*
X114500000Y-55500000D03*
X109900000Y-55500000D03*
%TD*%
%TA.AperFunction,Conductor*%
%TO.N,GND*%
G36*
X133442439Y-52520385D02*
G01*
X133488194Y-52573189D01*
X133499400Y-52624700D01*
X133499400Y-149375500D01*
X133479715Y-149442539D01*
X133426911Y-149488294D01*
X133375400Y-149499500D01*
X100624500Y-149499500D01*
X100557461Y-149479815D01*
X100511706Y-149427011D01*
X100500500Y-149375500D01*
X100500500Y-146939746D01*
X124189935Y-146939746D01*
X124189935Y-146939753D01*
X124210130Y-147118999D01*
X124210131Y-147119004D01*
X124269711Y-147289273D01*
X124365684Y-147442012D01*
X124493238Y-147569566D01*
X124645978Y-147665539D01*
X124816245Y-147725118D01*
X124816250Y-147725119D01*
X124995496Y-147745315D01*
X124995500Y-147745315D01*
X124995504Y-147745315D01*
X125174749Y-147725119D01*
X125174752Y-147725118D01*
X125174755Y-147725118D01*
X125345022Y-147665539D01*
X125497762Y-147569566D01*
X125625316Y-147442012D01*
X125721289Y-147289272D01*
X125780868Y-147119005D01*
X125801065Y-146939750D01*
X125780868Y-146760495D01*
X125721289Y-146590228D01*
X125625316Y-146437488D01*
X125497762Y-146309934D01*
X125345023Y-146213961D01*
X125174754Y-146154381D01*
X125174749Y-146154380D01*
X124995504Y-146134185D01*
X124995496Y-146134185D01*
X124816250Y-146154380D01*
X124816245Y-146154381D01*
X124645976Y-146213961D01*
X124493237Y-146309934D01*
X124365684Y-146437487D01*
X124269711Y-146590226D01*
X124210131Y-146760495D01*
X124210130Y-146760500D01*
X124189935Y-146939746D01*
X100500500Y-146939746D01*
X100500500Y-144399746D01*
X124189935Y-144399746D01*
X124189935Y-144399753D01*
X124210130Y-144578999D01*
X124210131Y-144579004D01*
X124269711Y-144749273D01*
X124365684Y-144902012D01*
X124493238Y-145029566D01*
X124645978Y-145125539D01*
X124816245Y-145185118D01*
X124816250Y-145185119D01*
X124995496Y-145205315D01*
X124995500Y-145205315D01*
X124995504Y-145205315D01*
X125174749Y-145185119D01*
X125174752Y-145185118D01*
X125174755Y-145185118D01*
X125345022Y-145125539D01*
X125497762Y-145029566D01*
X125625316Y-144902012D01*
X125721289Y-144749272D01*
X125780868Y-144579005D01*
X125801065Y-144399750D01*
X125780868Y-144220495D01*
X125721289Y-144050228D01*
X125625316Y-143897488D01*
X125497762Y-143769934D01*
X125345023Y-143673961D01*
X125174754Y-143614381D01*
X125174749Y-143614380D01*
X124995504Y-143594185D01*
X124995496Y-143594185D01*
X124816250Y-143614380D01*
X124816245Y-143614381D01*
X124645976Y-143673961D01*
X124493237Y-143769934D01*
X124365684Y-143897487D01*
X124269711Y-144050226D01*
X124210131Y-144220495D01*
X124210130Y-144220500D01*
X124189935Y-144399746D01*
X100500500Y-144399746D01*
X100500500Y-139319746D01*
X108024935Y-139319746D01*
X108024935Y-139319753D01*
X108045130Y-139498999D01*
X108045131Y-139499004D01*
X108104711Y-139669273D01*
X108200684Y-139822012D01*
X108328238Y-139949566D01*
X108480978Y-140045539D01*
X108651245Y-140105118D01*
X108651250Y-140105119D01*
X108830496Y-140125315D01*
X108830500Y-140125315D01*
X108830504Y-140125315D01*
X109009749Y-140105119D01*
X109009752Y-140105118D01*
X109009755Y-140105118D01*
X109180022Y-140045539D01*
X109332762Y-139949566D01*
X109460316Y-139822012D01*
X109556289Y-139669272D01*
X109615868Y-139499005D01*
X109636065Y-139319750D01*
X109636065Y-139319746D01*
X124189935Y-139319746D01*
X124189935Y-139319753D01*
X124210130Y-139498999D01*
X124210131Y-139499004D01*
X124269711Y-139669273D01*
X124365684Y-139822012D01*
X124493238Y-139949566D01*
X124645978Y-140045539D01*
X124816245Y-140105118D01*
X124816250Y-140105119D01*
X124995496Y-140125315D01*
X124995500Y-140125315D01*
X124995504Y-140125315D01*
X125174749Y-140105119D01*
X125174752Y-140105118D01*
X125174755Y-140105118D01*
X125345022Y-140045539D01*
X125497762Y-139949566D01*
X125625316Y-139822012D01*
X125721289Y-139669272D01*
X125780868Y-139499005D01*
X125801065Y-139319750D01*
X125780868Y-139140495D01*
X125721289Y-138970228D01*
X125625316Y-138817488D01*
X125497762Y-138689934D01*
X125345023Y-138593961D01*
X125174754Y-138534381D01*
X125174749Y-138534380D01*
X124995504Y-138514185D01*
X124995496Y-138514185D01*
X124816250Y-138534380D01*
X124816245Y-138534381D01*
X124645976Y-138593961D01*
X124493237Y-138689934D01*
X124365684Y-138817487D01*
X124269711Y-138970226D01*
X124210131Y-139140495D01*
X124210130Y-139140500D01*
X124189935Y-139319746D01*
X109636065Y-139319746D01*
X109615868Y-139140495D01*
X109556289Y-138970228D01*
X109460316Y-138817488D01*
X109332762Y-138689934D01*
X109180023Y-138593961D01*
X109009754Y-138534381D01*
X109009749Y-138534380D01*
X108830504Y-138514185D01*
X108830496Y-138514185D01*
X108651250Y-138534380D01*
X108651245Y-138534381D01*
X108480976Y-138593961D01*
X108328237Y-138689934D01*
X108200684Y-138817487D01*
X108104711Y-138970226D01*
X108045131Y-139140495D01*
X108045130Y-139140500D01*
X108024935Y-139319746D01*
X100500500Y-139319746D01*
X100500500Y-136779746D01*
X108024935Y-136779746D01*
X108024935Y-136779753D01*
X108045130Y-136958999D01*
X108045131Y-136959004D01*
X108104711Y-137129273D01*
X108200684Y-137282012D01*
X108328238Y-137409566D01*
X108480978Y-137505539D01*
X108651245Y-137565118D01*
X108651250Y-137565119D01*
X108830496Y-137585315D01*
X108830500Y-137585315D01*
X108830504Y-137585315D01*
X109009749Y-137565119D01*
X109009752Y-137565118D01*
X109009755Y-137565118D01*
X109180022Y-137505539D01*
X109332762Y-137409566D01*
X109460316Y-137282012D01*
X109556289Y-137129272D01*
X109615868Y-136959005D01*
X109636065Y-136779750D01*
X109615868Y-136600495D01*
X109556289Y-136430228D01*
X109460316Y-136277488D01*
X109332762Y-136149934D01*
X109180023Y-136053961D01*
X109009754Y-135994381D01*
X109009749Y-135994380D01*
X108830504Y-135974185D01*
X108830496Y-135974185D01*
X108651250Y-135994380D01*
X108651245Y-135994381D01*
X108480976Y-136053961D01*
X108328237Y-136149934D01*
X108200684Y-136277487D01*
X108104711Y-136430226D01*
X108045131Y-136600495D01*
X108045130Y-136600500D01*
X108024935Y-136779746D01*
X100500500Y-136779746D01*
X100500500Y-81524996D01*
X120219435Y-81524996D01*
X120219435Y-81525003D01*
X120239630Y-81704249D01*
X120239631Y-81704254D01*
X120299211Y-81874523D01*
X120395184Y-82027262D01*
X120522738Y-82154816D01*
X120675478Y-82250789D01*
X120845745Y-82310368D01*
X120845750Y-82310369D01*
X121024996Y-82330565D01*
X121025000Y-82330565D01*
X121025004Y-82330565D01*
X121204249Y-82310369D01*
X121204252Y-82310368D01*
X121204255Y-82310368D01*
X121374522Y-82250789D01*
X121527262Y-82154816D01*
X121654816Y-82027262D01*
X121750789Y-81874522D01*
X121810368Y-81704255D01*
X121830565Y-81525000D01*
X121810368Y-81345745D01*
X121750789Y-81175478D01*
X121654816Y-81022738D01*
X121527262Y-80895184D01*
X121374523Y-80799211D01*
X121204254Y-80739631D01*
X121204249Y-80739630D01*
X121025004Y-80719435D01*
X121024996Y-80719435D01*
X120845750Y-80739630D01*
X120845745Y-80739631D01*
X120675476Y-80799211D01*
X120522737Y-80895184D01*
X120395184Y-81022737D01*
X120299211Y-81175476D01*
X120239631Y-81345745D01*
X120239630Y-81345750D01*
X120219435Y-81524996D01*
X100500500Y-81524996D01*
X100500500Y-77074996D01*
X120219435Y-77074996D01*
X120219435Y-77075003D01*
X120239630Y-77254249D01*
X120239631Y-77254254D01*
X120299211Y-77424523D01*
X120395184Y-77577262D01*
X120522738Y-77704816D01*
X120675478Y-77800789D01*
X120845745Y-77860368D01*
X120845750Y-77860369D01*
X121024996Y-77880565D01*
X121025000Y-77880565D01*
X121025004Y-77880565D01*
X121204249Y-77860369D01*
X121204252Y-77860368D01*
X121204255Y-77860368D01*
X121374522Y-77800789D01*
X121527262Y-77704816D01*
X121654816Y-77577262D01*
X121750789Y-77424522D01*
X121810368Y-77254255D01*
X121830565Y-77075000D01*
X121810368Y-76895745D01*
X121750789Y-76725478D01*
X121654816Y-76572738D01*
X121527262Y-76445184D01*
X121374523Y-76349211D01*
X121204254Y-76289631D01*
X121204249Y-76289630D01*
X121025004Y-76269435D01*
X121024996Y-76269435D01*
X120845750Y-76289630D01*
X120845745Y-76289631D01*
X120675476Y-76349211D01*
X120522737Y-76445184D01*
X120395184Y-76572737D01*
X120299211Y-76725476D01*
X120239631Y-76895745D01*
X120239630Y-76895750D01*
X120219435Y-77074996D01*
X100500500Y-77074996D01*
X100500500Y-68174996D01*
X102569435Y-68174996D01*
X102569435Y-68175003D01*
X102589630Y-68354249D01*
X102589631Y-68354254D01*
X102649211Y-68524523D01*
X102745184Y-68677262D01*
X102872738Y-68804816D01*
X103025478Y-68900789D01*
X103195745Y-68960368D01*
X103195750Y-68960369D01*
X103374996Y-68980565D01*
X103375000Y-68980565D01*
X103375004Y-68980565D01*
X103554249Y-68960369D01*
X103554252Y-68960368D01*
X103554255Y-68960368D01*
X103724522Y-68900789D01*
X103877262Y-68804816D01*
X104004816Y-68677262D01*
X104100789Y-68524522D01*
X104160368Y-68354255D01*
X104180565Y-68175000D01*
X104160368Y-67995745D01*
X104100789Y-67825478D01*
X104004816Y-67672738D01*
X103877262Y-67545184D01*
X103724523Y-67449211D01*
X103554254Y-67389631D01*
X103554249Y-67389630D01*
X103375004Y-67369435D01*
X103374996Y-67369435D01*
X103195750Y-67389630D01*
X103195745Y-67389631D01*
X103025476Y-67449211D01*
X102872737Y-67545184D01*
X102745184Y-67672737D01*
X102649211Y-67825476D01*
X102589631Y-67995745D01*
X102589630Y-67995750D01*
X102569435Y-68174996D01*
X100500500Y-68174996D01*
X100500500Y-63724996D01*
X102569435Y-63724996D01*
X102569435Y-63725003D01*
X102589630Y-63904249D01*
X102589631Y-63904254D01*
X102649211Y-64074523D01*
X102745184Y-64227262D01*
X102872738Y-64354816D01*
X103025478Y-64450789D01*
X103195745Y-64510368D01*
X103195750Y-64510369D01*
X103374996Y-64530565D01*
X103375000Y-64530565D01*
X103375004Y-64530565D01*
X103554249Y-64510369D01*
X103554252Y-64510368D01*
X103554255Y-64510368D01*
X103724522Y-64450789D01*
X103877262Y-64354816D01*
X104004816Y-64227262D01*
X104100789Y-64074522D01*
X104160368Y-63904255D01*
X104180565Y-63725000D01*
X104160368Y-63545745D01*
X104100789Y-63375478D01*
X104004816Y-63222738D01*
X103877262Y-63095184D01*
X103724523Y-62999211D01*
X103554254Y-62939631D01*
X103554249Y-62939630D01*
X103375004Y-62919435D01*
X103374996Y-62919435D01*
X103195750Y-62939630D01*
X103195745Y-62939631D01*
X103025476Y-62999211D01*
X102872737Y-63095184D01*
X102745184Y-63222737D01*
X102649211Y-63375476D01*
X102589631Y-63545745D01*
X102589630Y-63545750D01*
X102569435Y-63724996D01*
X100500500Y-63724996D01*
X100500500Y-59274996D01*
X102569435Y-59274996D01*
X102569435Y-59275003D01*
X102589630Y-59454249D01*
X102589631Y-59454254D01*
X102649211Y-59624523D01*
X102730682Y-59754182D01*
X102745184Y-59777262D01*
X102872738Y-59904816D01*
X102963080Y-59961582D01*
X103018212Y-59996224D01*
X103025478Y-60000789D01*
X103154558Y-60045956D01*
X103195745Y-60060368D01*
X103195750Y-60060369D01*
X103374996Y-60080565D01*
X103375000Y-60080565D01*
X103375004Y-60080565D01*
X103554249Y-60060369D01*
X103554252Y-60060368D01*
X103554255Y-60060368D01*
X103724522Y-60000789D01*
X103877262Y-59904816D01*
X104004816Y-59777262D01*
X104100789Y-59624522D01*
X104126865Y-59550000D01*
X124845052Y-59550000D01*
X124864812Y-59801072D01*
X124923603Y-60045956D01*
X125019980Y-60278631D01*
X125151568Y-60493362D01*
X125152266Y-60494179D01*
X125810689Y-59835756D01*
X125829668Y-59881574D01*
X125906274Y-59996224D01*
X126003776Y-60093726D01*
X126118426Y-60170332D01*
X126164242Y-60189309D01*
X125505819Y-60847732D01*
X125505819Y-60847733D01*
X125506634Y-60848429D01*
X125721368Y-60980019D01*
X125954043Y-61076396D01*
X126198927Y-61135187D01*
X126450000Y-61154947D01*
X126701072Y-61135187D01*
X126945956Y-61076396D01*
X127178631Y-60980019D01*
X127393361Y-60848432D01*
X127393363Y-60848430D01*
X127394180Y-60847732D01*
X126735757Y-60189309D01*
X126781574Y-60170332D01*
X126896224Y-60093726D01*
X126993726Y-59996224D01*
X127070332Y-59881574D01*
X127089309Y-59835757D01*
X127747732Y-60494180D01*
X127748430Y-60493363D01*
X127748432Y-60493361D01*
X127880019Y-60278631D01*
X127976396Y-60045956D01*
X128035187Y-59801072D01*
X128054947Y-59550000D01*
X129945052Y-59550000D01*
X129964812Y-59801072D01*
X130023603Y-60045956D01*
X130119980Y-60278631D01*
X130251568Y-60493362D01*
X130252266Y-60494179D01*
X130910689Y-59835756D01*
X130929668Y-59881574D01*
X131006274Y-59996224D01*
X131103776Y-60093726D01*
X131218426Y-60170332D01*
X131264242Y-60189309D01*
X130605819Y-60847732D01*
X130605819Y-60847733D01*
X130606634Y-60848429D01*
X130821368Y-60980019D01*
X131054043Y-61076396D01*
X131298927Y-61135187D01*
X131550000Y-61154947D01*
X131801072Y-61135187D01*
X132045956Y-61076396D01*
X132278631Y-60980019D01*
X132493361Y-60848432D01*
X132493363Y-60848430D01*
X132494180Y-60847732D01*
X131835757Y-60189309D01*
X131881574Y-60170332D01*
X131996224Y-60093726D01*
X132093726Y-59996224D01*
X132170332Y-59881574D01*
X132189309Y-59835757D01*
X132847732Y-60494180D01*
X132848430Y-60493363D01*
X132848432Y-60493361D01*
X132980019Y-60278631D01*
X133076396Y-60045956D01*
X133135187Y-59801072D01*
X133154947Y-59550000D01*
X133135187Y-59298927D01*
X133076396Y-59054043D01*
X132980019Y-58821368D01*
X132848429Y-58606634D01*
X132847733Y-58605819D01*
X132847732Y-58605819D01*
X132189309Y-59264242D01*
X132170332Y-59218426D01*
X132093726Y-59103776D01*
X131996224Y-59006274D01*
X131881574Y-58929668D01*
X131835756Y-58910690D01*
X132494179Y-58252266D01*
X132493362Y-58251568D01*
X132278631Y-58119980D01*
X132045956Y-58023603D01*
X131801072Y-57964812D01*
X131550000Y-57945052D01*
X131298927Y-57964812D01*
X131054043Y-58023603D01*
X130821368Y-58119980D01*
X130606637Y-58251567D01*
X130605819Y-58252266D01*
X131264243Y-58910690D01*
X131218426Y-58929668D01*
X131103776Y-59006274D01*
X131006274Y-59103776D01*
X130929668Y-59218426D01*
X130910690Y-59264243D01*
X130252266Y-58605819D01*
X130251567Y-58606637D01*
X130119980Y-58821368D01*
X130023603Y-59054043D01*
X129964812Y-59298927D01*
X129945052Y-59550000D01*
X128054947Y-59550000D01*
X128035187Y-59298927D01*
X127976396Y-59054043D01*
X127880019Y-58821368D01*
X127748429Y-58606634D01*
X127747733Y-58605819D01*
X127747732Y-58605819D01*
X127089309Y-59264242D01*
X127070332Y-59218426D01*
X126993726Y-59103776D01*
X126896224Y-59006274D01*
X126781574Y-58929668D01*
X126735756Y-58910690D01*
X127394179Y-58252266D01*
X127393362Y-58251568D01*
X127178631Y-58119980D01*
X126945956Y-58023603D01*
X126701072Y-57964812D01*
X126450000Y-57945052D01*
X126198927Y-57964812D01*
X125954043Y-58023603D01*
X125721368Y-58119980D01*
X125506637Y-58251567D01*
X125505819Y-58252266D01*
X126164243Y-58910690D01*
X126118426Y-58929668D01*
X126003776Y-59006274D01*
X125906274Y-59103776D01*
X125829668Y-59218426D01*
X125810690Y-59264243D01*
X125152266Y-58605819D01*
X125151567Y-58606637D01*
X125019980Y-58821368D01*
X124923603Y-59054043D01*
X124864812Y-59298927D01*
X124845052Y-59550000D01*
X104126865Y-59550000D01*
X104160368Y-59454255D01*
X104180565Y-59275000D01*
X104171714Y-59196447D01*
X104160369Y-59095750D01*
X104160368Y-59095745D01*
X104100788Y-58925476D01*
X104004815Y-58772737D01*
X103877262Y-58645184D01*
X103724523Y-58549211D01*
X103554254Y-58489631D01*
X103554249Y-58489630D01*
X103375004Y-58469435D01*
X103374996Y-58469435D01*
X103195750Y-58489630D01*
X103195745Y-58489631D01*
X103025476Y-58549211D01*
X102872737Y-58645184D01*
X102745184Y-58772737D01*
X102649211Y-58925476D01*
X102589631Y-59095745D01*
X102589630Y-59095750D01*
X102569435Y-59274996D01*
X100500500Y-59274996D01*
X100500500Y-56905513D01*
X127799500Y-56905513D01*
X127799500Y-57094486D01*
X127829059Y-57281118D01*
X127887454Y-57460836D01*
X127973240Y-57629199D01*
X128084310Y-57782073D01*
X128217927Y-57915690D01*
X128370801Y-58026760D01*
X128450347Y-58067290D01*
X128539163Y-58112545D01*
X128539165Y-58112545D01*
X128539168Y-58112547D01*
X128635497Y-58143846D01*
X128718881Y-58170940D01*
X128905514Y-58200500D01*
X128905519Y-58200500D01*
X129094486Y-58200500D01*
X129281118Y-58170940D01*
X129460832Y-58112547D01*
X129629199Y-58026760D01*
X129782073Y-57915690D01*
X129915690Y-57782073D01*
X130026760Y-57629199D01*
X130112547Y-57460832D01*
X130170940Y-57281118D01*
X130200500Y-57094486D01*
X130200500Y-56905513D01*
X130170940Y-56718881D01*
X130112545Y-56539163D01*
X130026759Y-56370800D01*
X129915690Y-56217927D01*
X129782073Y-56084310D01*
X129629199Y-55973240D01*
X129460836Y-55887454D01*
X129281118Y-55829059D01*
X129094486Y-55799500D01*
X129094481Y-55799500D01*
X128905519Y-55799500D01*
X128905514Y-55799500D01*
X128718881Y-55829059D01*
X128539163Y-55887454D01*
X128370800Y-55973240D01*
X128285539Y-56035187D01*
X128217927Y-56084310D01*
X128217925Y-56084312D01*
X128217924Y-56084312D01*
X128084312Y-56217924D01*
X128084312Y-56217925D01*
X128084310Y-56217927D01*
X128036610Y-56283579D01*
X127973240Y-56370800D01*
X127887454Y-56539163D01*
X127829059Y-56718881D01*
X127799500Y-56905513D01*
X100500500Y-56905513D01*
X100500500Y-54450000D01*
X124845052Y-54450000D01*
X124864812Y-54701072D01*
X124923603Y-54945956D01*
X125019980Y-55178631D01*
X125151568Y-55393362D01*
X125152266Y-55394179D01*
X125810689Y-54735756D01*
X125829668Y-54781574D01*
X125906274Y-54896224D01*
X126003776Y-54993726D01*
X126118426Y-55070332D01*
X126164242Y-55089309D01*
X125505819Y-55747732D01*
X125505819Y-55747733D01*
X125506634Y-55748429D01*
X125721368Y-55880019D01*
X125954043Y-55976396D01*
X126198927Y-56035187D01*
X126450000Y-56054947D01*
X126701072Y-56035187D01*
X126945956Y-55976396D01*
X127178631Y-55880019D01*
X127393361Y-55748432D01*
X127393363Y-55748430D01*
X127394180Y-55747732D01*
X126735757Y-55089309D01*
X126781574Y-55070332D01*
X126896224Y-54993726D01*
X126993726Y-54896224D01*
X127070332Y-54781574D01*
X127089309Y-54735757D01*
X127747732Y-55394180D01*
X127748430Y-55393363D01*
X127748432Y-55393361D01*
X127880019Y-55178631D01*
X127976396Y-54945956D01*
X128035187Y-54701072D01*
X128054947Y-54450000D01*
X129945052Y-54450000D01*
X129964812Y-54701072D01*
X130023603Y-54945956D01*
X130119980Y-55178631D01*
X130251568Y-55393362D01*
X130252266Y-55394179D01*
X130910689Y-54735756D01*
X130929668Y-54781574D01*
X131006274Y-54896224D01*
X131103776Y-54993726D01*
X131218426Y-55070332D01*
X131264242Y-55089309D01*
X130605819Y-55747732D01*
X130605819Y-55747733D01*
X130606634Y-55748429D01*
X130821368Y-55880019D01*
X131054043Y-55976396D01*
X131298927Y-56035187D01*
X131550000Y-56054947D01*
X131801072Y-56035187D01*
X132045956Y-55976396D01*
X132278631Y-55880019D01*
X132493361Y-55748432D01*
X132493363Y-55748430D01*
X132494180Y-55747732D01*
X131835757Y-55089309D01*
X131881574Y-55070332D01*
X131996224Y-54993726D01*
X132093726Y-54896224D01*
X132170332Y-54781574D01*
X132189309Y-54735757D01*
X132847732Y-55394180D01*
X132848430Y-55393363D01*
X132848432Y-55393361D01*
X132980019Y-55178631D01*
X133076396Y-54945956D01*
X133135187Y-54701072D01*
X133154947Y-54450000D01*
X133135187Y-54198927D01*
X133076396Y-53954043D01*
X132980019Y-53721368D01*
X132848429Y-53506634D01*
X132847733Y-53505819D01*
X132847732Y-53505819D01*
X132189309Y-54164242D01*
X132170332Y-54118426D01*
X132093726Y-54003776D01*
X131996224Y-53906274D01*
X131881574Y-53829668D01*
X131835756Y-53810690D01*
X132494179Y-53152266D01*
X132493362Y-53151568D01*
X132278631Y-53019980D01*
X132045956Y-52923603D01*
X131801072Y-52864812D01*
X131550000Y-52845052D01*
X131298927Y-52864812D01*
X131054043Y-52923603D01*
X130821368Y-53019980D01*
X130606637Y-53151567D01*
X130605819Y-53152266D01*
X131264243Y-53810690D01*
X131218426Y-53829668D01*
X131103776Y-53906274D01*
X131006274Y-54003776D01*
X130929668Y-54118426D01*
X130910690Y-54164243D01*
X130252266Y-53505819D01*
X130251567Y-53506637D01*
X130119980Y-53721368D01*
X130023603Y-53954043D01*
X129964812Y-54198927D01*
X129945052Y-54450000D01*
X128054947Y-54450000D01*
X128035187Y-54198927D01*
X127976396Y-53954043D01*
X127880019Y-53721368D01*
X127748429Y-53506634D01*
X127747733Y-53505819D01*
X127747732Y-53505819D01*
X127089309Y-54164242D01*
X127070332Y-54118426D01*
X126993726Y-54003776D01*
X126896224Y-53906274D01*
X126781574Y-53829668D01*
X126735756Y-53810690D01*
X127394179Y-53152266D01*
X127393362Y-53151568D01*
X127178631Y-53019980D01*
X126945956Y-52923603D01*
X126701072Y-52864812D01*
X126450000Y-52845052D01*
X126198927Y-52864812D01*
X125954043Y-52923603D01*
X125721368Y-53019980D01*
X125506637Y-53151567D01*
X125505819Y-53152266D01*
X126164243Y-53810690D01*
X126118426Y-53829668D01*
X126003776Y-53906274D01*
X125906274Y-54003776D01*
X125829668Y-54118426D01*
X125810690Y-54164243D01*
X125152266Y-53505819D01*
X125151567Y-53506637D01*
X125019980Y-53721368D01*
X124923603Y-53954043D01*
X124864812Y-54198927D01*
X124845052Y-54450000D01*
X100500500Y-54450000D01*
X100500500Y-52624700D01*
X100520185Y-52557661D01*
X100572989Y-52511906D01*
X100624500Y-52500700D01*
X133375400Y-52500700D01*
X133442439Y-52520385D01*
G37*
%TD.AperFunction*%
%TD*%
M02*
