M48
; DRILL file {KiCad 8.0.6} date 2024-10-23T18:20:00-0400
; FORMAT={-:-/ absolute / inch / decimal}
; #@! TF.CreationDate,2024-10-23T18:20:00-04:00
; #@! TF.GenerationSoftware,Kicad,Pcbnew,8.0.6
; #@! TF.FileFunction,Plated,1,4,PTH
FMAT,2
INCH
; #@! TA.AperFunction,Plated,PTH,ViaDrill
T1C0.0118
; #@! TA.AperFunction,Plated,PTH,ComponentDrill
T2C0.0551
%
G90
G05
T1
X4.0699Y-2.3337
X4.0699Y-2.5089
X4.0699Y-2.6841
X4.2847Y-5.385
X4.2847Y-5.485
X4.2847Y-5.685
X4.3268Y-2.185
X4.5079Y-2.185
X4.554Y-5.7249
X4.7648Y-3.0344
X4.7648Y-3.2096
X4.779Y-5.5751
X4.9211Y-5.485
X4.9211Y-5.685
X4.9211Y-5.785
X5.1378Y-5.2323
T2
X4.9783Y-2.1437
X4.9783Y-2.3445
X5.0787Y-2.2441
X5.1791Y-2.1437
X5.1791Y-2.3445
M30
