%TF.GenerationSoftware,KiCad,Pcbnew,8.0.6*%
%TF.CreationDate,2024-10-23T18:19:56-04:00*%
%TF.ProjectId,MobileRadio,4d6f6269-6c65-4526-9164-696f2e6b6963,rev?*%
%TF.SameCoordinates,Original*%
%TF.FileFunction,Paste,Top*%
%TF.FilePolarity,Positive*%
%FSLAX46Y46*%
G04 Gerber Fmt 4.6, Leading zero omitted, Abs format (unit mm)*
G04 Created by KiCad (PCBNEW 8.0.6) date 2024-10-23 18:19:56*
%MOMM*%
%LPD*%
G01*
G04 APERTURE LIST*
G04 Aperture macros list*
%AMRoundRect*
0 Rectangle with rounded corners*
0 $1 Rounding radius*
0 $2 $3 $4 $5 $6 $7 $8 $9 X,Y pos of 4 corners*
0 Add a 4 corners polygon primitive as box body*
4,1,4,$2,$3,$4,$5,$6,$7,$8,$9,$2,$3,0*
0 Add four circle primitives for the rounded corners*
1,1,$1+$1,$2,$3*
1,1,$1+$1,$4,$5*
1,1,$1+$1,$6,$7*
1,1,$1+$1,$8,$9*
0 Add four rect primitives between the rounded corners*
20,1,$1+$1,$2,$3,$4,$5,0*
20,1,$1+$1,$4,$5,$6,$7,0*
20,1,$1+$1,$6,$7,$8,$9,0*
20,1,$1+$1,$8,$9,$2,$3,0*%
G04 Aperture macros list end*
%ADD10RoundRect,0.500000X0.875000X0.500000X-0.875000X0.500000X-0.875000X-0.500000X0.875000X-0.500000X0*%
%ADD11RoundRect,0.275000X-0.975000X-0.275000X0.975000X-0.275000X0.975000X0.275000X-0.975000X0.275000X0*%
%ADD12C,1.700000*%
%ADD13RoundRect,0.625000X0.750000X0.625000X-0.750000X0.625000X-0.750000X-0.625000X0.750000X-0.625000X0*%
%ADD14RoundRect,0.250000X-0.450000X0.262500X-0.450000X-0.262500X0.450000X-0.262500X0.450000X0.262500X0*%
%ADD15RoundRect,0.250000X0.550000X-1.500000X0.550000X1.500000X-0.550000X1.500000X-0.550000X-1.500000X0*%
%ADD16RoundRect,0.250000X-0.475000X0.250000X-0.475000X-0.250000X0.475000X-0.250000X0.475000X0.250000X0*%
%ADD17R,2.470000X1.880000*%
%ADD18R,1.880000X2.470000*%
%ADD19R,6.600000X1.800000*%
%ADD20R,8.000000X1.800000*%
G04 APERTURE END LIST*
D10*
%TO.C,U1*%
X124995500Y-146939750D03*
X124995500Y-144399750D03*
X124995500Y-141859750D03*
X124995500Y-139319750D03*
X124995500Y-136779750D03*
X124995500Y-134239750D03*
X124995500Y-131699750D03*
X108830500Y-131699750D03*
X108830500Y-134239750D03*
X108830500Y-136779750D03*
X108830500Y-139319750D03*
X108830500Y-141859750D03*
X108830500Y-144399750D03*
X108830500Y-146939750D03*
D11*
X121385500Y-139701750D03*
X121385500Y-141606750D03*
D12*
X118210500Y-147951750D03*
X115670500Y-147951750D03*
X118210500Y-145411750D03*
X115670500Y-145411750D03*
X118210500Y-142871750D03*
X115670500Y-142871750D03*
X118210500Y-140331750D03*
X115670500Y-140331750D03*
D13*
X115820500Y-137319750D03*
%TD*%
D14*
%TO.C,R1*%
X128500000Y-131087500D03*
X128500000Y-132912500D03*
%TD*%
D15*
%TO.C,C2*%
X128500000Y-127800000D03*
X128500000Y-122200000D03*
%TD*%
D16*
%TO.C,C1*%
X130500000Y-131000000D03*
X130500000Y-132900000D03*
%TD*%
D17*
%TO.C,U2*%
X103375000Y-85975000D03*
X103375000Y-81525000D03*
X103375000Y-77075000D03*
X103375000Y-72625000D03*
X103375000Y-68175000D03*
X103375000Y-63725000D03*
X103375000Y-59275000D03*
D18*
X105300000Y-55500000D03*
X109900000Y-55500000D03*
X114500000Y-55500000D03*
X119100000Y-55500000D03*
D17*
X121025000Y-59275000D03*
X121025000Y-63725000D03*
X121025000Y-68175000D03*
X121025000Y-72625000D03*
X121025000Y-77075000D03*
X121025000Y-81525000D03*
X121025000Y-85975000D03*
D19*
X106000000Y-89750000D03*
D20*
X117700000Y-89750000D03*
%TD*%
M02*
